<?xml version="1.0" standalone="no"?>
<!DOCTYPE svg PUBLIC "-//W3C//DTD SVG 20010904//EN"
 "http://www.w3.org/TR/2001/REC-SVG-20010904/DTD/svg10.dtd">
<svg version="1.0" xmlns="http://www.w3.org/2000/svg"
 width="157.000000pt" height="43.000000pt" viewBox="0 0 157.000000 43.000000"
 preserveAspectRatio="xMidYMid meet">

<g transform="translate(0.000000,43.000000) scale(0.100000,-0.100000)"
fill="#000000" stroke="none">
<path d="M104 351 c-61 -37 -82 -152 -40 -216 37 -57 110 -78 170 -50 33 16
66 58 66 85 0 21 -52 10 -72 -15 -37 -47 -101 -28 -118 35 -20 75 33 144 94
120 13 -5 27 -19 31 -30 5 -16 12 -20 28 -16 12 3 25 6 30 6 16 0 5 31 -21 61
-24 27 -37 33 -83 36 -41 3 -61 0 -85 -16z"/>
<path d="M347 363 c-4 -3 -7 -69 -7 -145 l0 -138 35 0 35 0 0 74 c0 79 13 103
48 91 24 -7 32 -33 32 -107 l0 -58 31 0 31 0 -4 91 c-3 81 -6 93 -27 110 -30
25 -62 24 -95 -2 l-26 -20 0 55 c0 52 -2 56 -23 56 -13 0 -27 -3 -30 -7z"/>
<path d="M990 225 l0 -145 30 0 30 0 0 145 0 145 -30 0 -30 0 0 -145z"/>
<path d="M641 287 c-13 -6 -31 -22 -39 -34 -14 -22 -13 -23 15 -23 16 0 34 5
40 11 15 15 58 7 58 -11 0 -9 -11 -16 -25 -18 -87 -11 -123 -48 -98 -100 19
-38 62 -51 99 -30 16 10 29 13 29 8 0 -6 14 -10 30 -10 l30 0 0 79 c0 95 -4
107 -41 126 -34 18 -66 19 -98 2z m68 -153 c-16 -19 -64 -14 -64 6 0 8 16 20
35 26 29 10 36 9 38 -3 2 -7 -2 -21 -9 -29z"/>
<path d="M836 292 c-3 -3 -6 -52 -6 -109 l0 -103 30 0 30 0 0 75 c0 69 2 76
23 84 12 5 28 6 35 4 8 -4 12 5 12 26 0 32 -19 41 -49 22 -7 -5 -26 -5 -42 -1
-15 5 -30 6 -33 2z"/>
<path d="M1155 291 c-36 -16 -58 -50 -63 -99 -3 -41 0 -52 23 -80 46 -55 144
-51 175 8 10 18 8 20 -24 20 -19 0 -38 -4 -41 -10 -11 -17 -54 -11 -65 9 -5
11 -10 22 -10 25 0 3 34 6 76 6 l77 0 -6 37 c-4 20 -17 47 -30 60 -25 26 -81
38 -112 24z m73 -53 c21 -21 13 -28 -33 -28 -43 0 -45 1 -35 20 12 22 49 27
68 8z"/>
<path d="M1368 285 c-57 -32 -44 -98 24 -115 65 -17 70 -19 66 -33 -6 -16 -47
-22 -61 -8 -11 11 -67 16 -67 5 0 -20 25 -44 56 -54 67 -23 134 8 134 61 0 36
-22 57 -68 65 -41 7 -65 22 -56 35 7 12 51 11 59 -1 8 -12 65 -13 65 -1 0 5
-8 19 -18 31 -23 28 -96 37 -134 15z"/>
</g>
</svg>
